<svg xmlns="http://www.w3.org/2000/svg" xmlns:xlink="http://www.w3.org/1999/xlink" width="16" height="16" viewBox="0 0 4.233 4.233"><defs><linearGradient id="a"><stop offset="0" stop-color="#fff3b1"/><stop offset="1" stop-color="#ffb842"/></linearGradient><radialGradient xlink:href="#a" id="c" cx="-6.575" cy="165.558" fx="-6.575" fy="165.558" r="10.205" gradientUnits="userSpaceOnUse" gradientTransform="matrix(0 -.31905 .24611 0 170.54 206.162)"/><filter id="b" x="-.067" width="1.134" y="-.067" height="1.134" color-interpolation-filters="sRGB"><feGaussianBlur stdDeviation=".808"/></filter><linearGradient id="d" gradientTransform="matrix(.98378 0 0 1 -.09 .095)" gradientUnits="userSpaceOnUse" x1="5.008" x2=".904" y1="281.9" y2="280.401"><stop offset="0" stop-color="#fce94f"/><stop offset="1" stop-color="#fce94f" stop-opacity=".257"/></linearGradient><linearGradient id="e" gradientTransform="matrix(.98378 0 0 1 -.09 3.005)" gradientUnits="userSpaceOnUse" x1="5.008" x2=".795" y1="281.9" y2="280.698"><stop offset="0" stop-color="#729ece"/><stop offset="1" stop-color="#729ece" stop-opacity=".515"/></linearGradient><linearGradient id="f" gradientTransform="matrix(.98378 0 0 1 -.09 5.915)" gradientUnits="userSpaceOnUse" x1="5.008" x2=".898" y1="281.9" y2="280.766"><stop offset="0" stop-color="#ec2d27"/><stop offset="1" stop-color="#ef2929" stop-opacity=".446"/></linearGradient></defs><path style="isolation:auto;mix-blend-mode:normal" transform="scale(.12306) rotate(45 196.873 156.063)" color="#000" overflow="visible" opacity=".275" fill="#3b3200" fill-rule="evenodd" stroke="#000" stroke-width="1.665" stroke-linejoin="round" filter="url(#b)" enable-background="accumulate" d="M-37.664 175.35h20.411v20.411h-20.411z"/><path style="isolation:auto;mix-blend-mode:normal" transform="rotate(45 353.4 -146.383)" color="#000" overflow="visible" fill="url(#c)" fill-rule="evenodd" stroke="#ffb842" stroke-width=".119" stroke-linejoin="round" enable-background="accumulate" d="M208.774 205.748h2.512v2.512h-2.512z"/><g fill-rule="evenodd" stroke-width="1.062"><path overflow="visible" d="M.748 280.407l10.173.218.029 3.11-10.256.012z" fill="url(#d)" transform="matrix(.17077 .16415 -.19192 .18598 55.827 -51.861)"/><path overflow="visible" d="M.658 283.127l10.42.135.035 3.42H.793z" fill="url(#e)" transform="matrix(.17077 .16415 -.19192 .18598 55.827 -51.861)"/><path overflow="visible" d="M.794 286.681h10.319v2.91H.793z" fill="url(#f)" transform="matrix(.17077 .16415 -.19192 .18598 55.827 -51.861)"/></g><path style="isolation:auto;mix-blend-mode:normal" color="#000" overflow="visible" fill="none" stroke="#ffb842" stroke-width=".119" stroke-linejoin="round" enable-background="accumulate" d="M2.14.345L3.916 2.12 2.14 3.897.363 2.121z"/></svg>