<svg xmlns="http://www.w3.org/2000/svg" xmlns:xlink="http://www.w3.org/1999/xlink" id="Layer_1" data-name="Layer 1" viewBox="0 0 985.61 985.61"><defs><linearGradient id="linear-gradient" x1="2340.93" x2="2340.93" y1="-981.96" y2="-1624.18" gradientTransform="translate(-1848.13 1795.87)" gradientUnits="userSpaceOnUse"><stop offset="0" stop-color="#4e8daf"/><stop offset="1" stop-color="#689242"/></linearGradient><linearGradient xlink:href="#linear-gradient" id="linear-gradient-2" x1="2019.32" x2="2662.54" y1="-1303.07" y2="-1303.07"/><style>.cls-2{fill:#fff;stroke-width:0}</style></defs><path d="M505.765-.003 985.577 505.79 479.784 985.602-.028 479.809z" class="cls-2"/><path d="M171.69 171.69h642.22v642.22H171.69z" style="fill:url(#linear-gradient);stroke:url(#linear-gradient-2);stroke-miterlimit:10" transform="rotate(46.51 492.796 492.767)"/><path d="M724.6 520.61c-1.22 9.31-3.98 18.51-6.86 27.5-6.2 19.36-18.89 34.39-33.1 48.39-20.76 20.47-41.28 41.16-61.9 61.75-18.46 18.43-36.89 36.89-55.39 55.3-9.53 9.49-18.98 19.04-28.76 28.25-10.83 10.19-24.2 13.5-38.6 11.98-18.72-1.97-32.5-12.07-40.1-28.95-7.6-16.91-7.05-34.24 4.76-49.38 7.18-9.22 15.74-17.37 23.98-25.7 18.94-19.11 38.01-38.1 57.12-57.04 12.27-12.17 24.71-24.18 37.08-36.24 4.92-4.8 9.88-9.56 14.82-14.34 3.58-3.48 4.42-3.44 7.9.15 5.67 5.85 11.35 11.66 17.05 17.48.54.57 1.06 1.22 1.73 1.63.71.43 1.75 1.03 2.31.79.6-.26 1.07-1.4 1.13-2.2.27-3.83.42-7.68.53-11.51.61-20.92 1.16-41.84 1.81-62.75.16-5.19.6-10.39.98-15.58.22-3-.95-4.28-4.09-4.24-29.76.34-59.51.6-89.25.94-.99.01-1.97.72-2.95 1.1.48.95.77 2.08 1.48 2.83 5.75 6.06 11.54 12.11 17.4 18.07 5.52 5.61 5.59 6.35-.15 11.91-12.44 12.03-24.92 24.01-37.33 36.05-11.83 11.5-23.57 23.08-35.4 34.58-5.18 5.04-10.09 10.47-15.8 14.86-5.51 4.21-11.68 7.72-17.93 10.79-6.25 3.07-12.8 5.74-19.49 7.64-14.54 4.17-29.4 5.97-44.6 4.92-13.19-.91-26.07-3.19-38.33-8.06-12.95-5.15-24.98-11.98-35.83-20.87-12.02-9.86-21.97-21.44-29.97-34.7-7.46-12.38-12.61-25.57-15.51-39.83-2.17-10.73-3.68-21.42-2.91-32.28 1.4-19.78 6.04-38.63 15.92-56.18 7.26-12.85 16.35-24.06 26.7-34.39 45.73-45.62 91.48-91.22 137.27-136.78 15.65-15.56 38.36-19.42 58.18-9.61 10.62 5.25 18.32 13.55 23.37 24.45 5.49 11.85 5.53 23.91 1.86 36.04-2.6 8.56-8.02 15.59-14.31 21.9-18.94 18.95-37.82 37.95-56.81 56.85-16.18 16.09-32.5 32.05-48.72 48.11-7.63 7.56-15.13 15.24-22.73 22.82-3.44 3.45-3.93 3.44-7.33.01-6.14-6.17-12.25-12.38-18.38-18.55-.94-.94-1.98-1.74-3.71-3.25-.26 2.42-.52 3.83-.54 5.26-.54 27.59-1.06 55.19-1.6 82.8a38.06 38.06 0 0 1-.18 3.38c-.53 5.44-.27 5.79 5.36 5.71 29.06-.42 58.14-.87 87.2-1.39 1.09-.01 2.17-.71 3.26-1.09-.57-1.05-.92-2.3-1.73-3.11-6.55-6.72-13.19-13.34-19.79-20-3-3.04-3.03-3.89.03-6.93 15.78-15.7 31.58-31.37 47.39-47.03 8.5-8.41 16.8-17.05 25.62-25.11 12.56-11.47 27.09-20.09 43.1-25.64 9.84-3.41 20.21-5.57 30.52-7.31 8.18-1.4 16.64-1.9 24.94-1.69 7.27.19 14.54 1.7 21.74 3.06 5.75 1.1 11.47 2.53 17.01 4.42 7.12 2.43 14.31 4.93 21 8.35 17.21 8.75 32.13 20.63 44.33 35.61 8.67 10.63 15.25 22.48 19.63 35.68 5.46 16.49 7.86 33.28 5.63 50.39Z" class="cls-2"/></svg>