<svg id="Ebene_1" data-name="Ebene 1" xmlns="http://www.w3.org/2000/svg" viewBox="0 0 248.88 278.36"><defs><style>.cls-1{fill:#fff;}.cls-2{fill:#73a44d;}.cls-3{fill:#1d4660;}</style></defs><polygon class="cls-1" points="71.67 62.79 59.69 62.75 59.69 38.83 71.67 38.86 71.67 62.79"/><polyline class="cls-1" points="224.6 168.61 224.6 133.32 212.97 133.32 212.97 109.76 201.17 109.76 201.17 86.11 177.54 86.11 177.54 74.3 154 74.3 154 62.57 118.74 62.57 118.74 74.26 106.89 74.26 106.89 86.07 95.07 86.07 95.07 97.83 59.68 97.83 59.68 86.07 48.01 86.07 48.01 109.64 36.15 109.64 36.15 133.24 24.37 133.24 24.37 168.48 71.69 168.48 71.69 180.3 83.34 180.3 83.34 192.05 106.84 192.05 106.84 180.3 118.63 180.3 118.63 168.51 130.51 168.51 130.51 180.34 142.26 180.34 142.26 192.12 154.09 192.12 154.09 203.76 177.53 203.76 177.53 192.09 189.36 192.09 189.36 180.34 201.19 180.34 201.19 180.26 212.86 180.26 212.86 168.84 224.74 168.84"/><rect class="cls-2" x="189.35" y="192.26" width="11.77" height="11.7"/><polygon class="cls-2" points="189.29 239.25 189.29 204 177.6 204 177.6 215.66 153.96 215.66 153.96 204.04 142.17 204.04 142.17 192.26 130.35 192.26 130.35 180.44 118.7 180.44 118.7 192.22 106.88 192.22 106.88 203.96 83.27 203.96 83.27 192.22 71.47 192.22 71.47 180.41 48.04 180.41 48.04 203.89 59.74 203.89 59.74 239.26 71.58 239.26 71.58 251.09 177.47 251.09 177.47 239.25 189.29 239.25"/><path class="cls-3" d="M154,50.83H118.74V39h-11.8V27.2H95.12V15.45H59.74V27.23H47.89V39H36.12V74.38H48V86.19H59.72V97.94H95.08V86.19h11.81V74.38h11.85V62.71H154ZM71.56,62.65l-11.82,0V39l11.82,0Z"/><rect class="cls-3" x="153.97" y="62.55" width="23.7" height="11.87"/><rect class="cls-3" x="177.49" y="74.35" width="23.7" height="11.87"/><rect class="cls-3" x="201.1" y="86.16" width="11.87" height="23.7"/><rect class="cls-3" x="212.9" y="109.7" width="11.87" height="23.7"/><rect class="cls-3" x="36.18" y="86.15" width="11.87" height="23.59"/><rect class="cls-3" x="24.33" y="109.64" width="11.87" height="23.67"/><rect class="cls-3" x="12.56" y="133.27" width="11.87" height="35.4"/><rect class="cls-3" x="224.52" y="133.27" width="11.87" height="35.4"/><rect class="cls-3" x="71.49" y="180.34" width="11.87" height="11.87"/><polygon class="cls-3" points="71.72 168.53 24.37 168.53 24.37 180.41 36.18 180.41 36.18 203.93 48.05 203.93 48.05 180.41 71.72 180.41 71.72 168.53"/><rect class="cls-3" x="47.89" y="203.88" width="11.87" height="35.49"/><rect class="cls-3" x="59.72" y="239.26" width="11.87" height="11.87"/><rect class="cls-3" x="71.49" y="251.09" width="106.08" height="11.87"/><rect class="cls-3" x="177.49" y="239.24" width="11.87" height="11.87"/><rect class="cls-3" x="189.31" y="203.95" width="11.87" height="35.43"/><polygon class="cls-3" points="189.31 180.31 213 180.31 213 204.03 201.13 204.03 201.13 192.25 189.31 192.25 189.31 180.31"/><rect class="cls-3" x="177.49" y="192.12" width="11.87" height="11.87"/><rect class="cls-3" x="212.78" y="168.89" width="11.87" height="11.87"/><rect class="cls-3" x="153.97" y="203.79" width="23.65" height="11.87"/><rect class="cls-3" x="142.18" y="192.16" width="11.87" height="11.87"/><rect class="cls-3" x="130.36" y="180.38" width="11.87" height="11.87"/><rect class="cls-3" x="118.62" y="168.56" width="11.87" height="11.87"/><rect class="cls-3" x="106.84" y="180.34" width="11.87" height="11.87"/><rect class="cls-3" x="83.29" y="192.08" width="23.61" height="11.87"/></svg>
