<svg id="Ebene_1" data-name="Ebene 1" xmlns="http://www.w3.org/2000/svg" viewBox="0 0 724.37 138.57"><defs><style>.cls-1{fill:#fff;}.cls-2{fill:#1c4562;}.cls-3{fill:#1d4660;}.cls-4{fill:#73a44d;}</style></defs><polygon class="cls-1" points="147.63 36.56 142.48 36.54 142.48 26.41 147.63 26.42 147.63 36.56"/><path class="cls-1" d="M202.94,52.2l.05-5.55h-10.2V41.54h-10v-5H167.7v5h-5.07v5.06h-5.06v5h-14.9v-5h-5.22V56.61h-5.06l0,9.95h-4.88l0,15.27H147.6V86.9h5v5l10.26,0v-5l4.95,0V81.85h4.86v5.07h5l0,5h5.15v5H193.1V52.27Zm-75.63,4.42"/><path class="cls-2" d="M24.85,117a15.21,15.21,0,0,1-4.59.64c-9.38,0-14.52-7.12-14.52-16.5s5.14-16.45,14.52-16.45,14.52,7.08,14.52,16.45-5,13-5.42,13.42a15.61,15.61,0,0,0,4,4.6l-4.32,2.94A14.62,14.62,0,0,1,24.85,117Zm-2.39-4.65a15.58,15.58,0,0,0-3.86-4.22l4.19-2.85a12.52,12.52,0,0,1,3.62,4.32s2.21-2.58,2.21-8.46c0-6.06-2.39-11.49-8.36-11.49s-8.36,5.43-8.36,11.49,2.38,11.49,8.36,11.49A6.74,6.74,0,0,0,22.46,112.35Z"/><path class="cls-2" d="M41,101.05c0-9.93,5.79-16.36,14.61-16.36s11.67,6.16,11.86,6.62l-5,2.85a6.94,6.94,0,0,0-6.89-4.51c-4.78,0-8.45,3.5-8.45,11.49s3.49,11.49,8.45,11.49,6.71-2.48,6.71-2.48v-6.62H55v-5H68.15v13.69s-3.68,5.47-12.86,5.47S41,111,41,101.05Z"/><path class="cls-2" d="M77.72,85.34h6V117h-6Z"/><path class="cls-2" d="M91.05,109l5-2.58c1.84,4.6,5.15,6.34,8.09,6.34s5.15-1.56,5.15-4.23-1.93-3.76-4.6-4.59l-3.76-1.19c-4.33-1.38-8.65-3.77-8.65-9.2s4.51-8.82,10.76-8.82,10.2,3.86,11.4,6.62l-4.33,2.94a8.05,8.05,0,0,0-7-4.69c-2.94,0-4.78,1.29-4.78,3.59s2.11,3.21,4.5,3.95l3.77,1.19c3.49,1.11,8.82,3.5,8.82,9.56s-4.68,9.79-11.39,9.79A13.6,13.6,0,0,1,91.05,109Z"/><path class="cls-3" d="M237.71,117l.56-44.73h-.37l-11,44.73h-10.4L206,72.23h-.28l.46,44.73H192.8V51.79h18.59l10.49,42h.37l10.22-42h19.7V117Z"/><path class="cls-3" d="M286.2,118.8c-15.46,0-25-13.81-25-34.52s9.39-34.14,25-34.14c15.47,0,25,13.53,25,34.14S301.67,118.8,286.2,118.8Zm0-54.4c-6.72,0-9.94,8.56-9.94,19.88s3.22,20.07,9.94,20.07,9.94-8.74,9.94-20.07S292.83,64.4,286.2,64.4Z"/><path class="cls-3" d="M338.49,117.05H320.18V51.88h18.31c18.69,0,27.06,12.71,27.06,32.77C365.55,104.35,357.09,117.05,338.49,117.05Zm.19-52.28h-3.59v39.4h3.59c7.08,0,12.05-6.91,12.05-19.52C350.73,71.58,345.76,64.77,338.68,64.77Z"/><path class="cls-3" d="M374.49,117.05V51.88H406v13h-17.4v12.8h16V89.81h-16v14.08h18.51v13.16Z"/><path class="cls-3" d="M415.74,117.05V51.88h14.91v51.55H448v13.62Z"/><path class="cls-3" d="M494.72,117.05H473.09V51.88H492.6c8.1,0,19.24,2.67,19.24,16.76,0,7.64-3.59,12.15-8.1,14.26v.19c5,1.29,10.31,6.26,10.31,15.37C514.05,112.36,504,117.05,494.72,117.05Zm-3-52.92h-5V78.21h5.06c3.59,0,7-2,7-7.18S495.55,64.13,491.77,64.13ZM492.14,89H486.8v15.83h5.52c4.33,0,7.74-2.58,7.74-7.73C500.06,91.28,495.91,89,492.14,89Z"/><path class="cls-3" d="M552.07,117.05l-2.67-11.87H534.77l-2.67,11.87H517.37L533.2,51.88h18.5l15.74,65.17Zm-9.76-51H542l-5.53,27.7h11.14Z"/><path class="cls-3" d="M602.15,117.05l-13.9-30.28H588v30.28H573.16V51.88H588V79h.28l13.44-27.16h16.47L601.41,81.71l17.77,35.34Z"/><path class="cls-3" d="M625.45,117.05V51.88h31.47v13H639.53v12.8h16V89.81h-16v14.08H658v13.16Z"/><path class="cls-3" d="M693.93,117.05,685.19,91.1h-4.33v26H666.69V51.88h20.89c12.61,0,20,6.63,20,19.61,0,9.67-5,15-9.2,16.48l11.14,29.08Zm-8.47-52.83h-4.6V80.7h4.33c4.14,0,7.82-2.49,7.82-8.38C693,65.69,688.87,64.22,685.46,64.22Z"/><rect class="cls-4" x="197.87" y="91.88" width="5.02" height="4.99"/><polygon class="cls-4" points="197.84 111.92 197.84 96.89 192.86 96.89 192.86 101.86 182.77 101.86 182.77 96.9 177.75 96.9 177.75 91.88 172.71 91.88 172.71 86.84 167.74 86.84 167.74 91.86 162.69 91.86 162.69 96.87 152.63 96.87 152.63 91.86 147.59 91.86 147.59 86.83 137.6 86.83 137.6 96.84 142.59 96.84 142.59 111.93 147.64 111.93 147.64 116.97 192.8 116.97 192.8 111.92 197.84 111.92"/><path class="cls-3" d="M162.69,26.46v-5h-5v-5H142.56v5H137.5v5h-5V41.55h5.06v5h5v5h15.08v-5h5v-5h5.05V26.46ZM147.6,36.54h-5V26.46l5,0Z"/><rect class="cls-3" x="167.71" y="31.54" width="15.09" height="5.06"/><rect class="cls-3" x="182.77" y="36.54" width="10.11" height="5.06"/><rect class="cls-3" x="192.8" y="41.57" width="10.11" height="5.06"/><rect class="cls-3" x="202.87" y="46.61" width="5.06" height="5.21"/><rect class="cls-3" x="127.48" y="56.62" width="5.06" height="10.1"/><rect class="cls-3" x="132.52" y="46.52" width="5.06" height="10.1"/><rect class="cls-3" x="122.46" y="66.7" width="5.06" height="15.1"/><rect class="cls-3" x="127.49" y="81.74" width="20.2" height="5.06"/><rect class="cls-3" x="147.59" y="86.78" width="5.06" height="5.06"/><rect class="cls-3" x="132.53" y="86.8" width="5.06" height="10.04"/><rect class="cls-3" x="137.52" y="96.82" width="5.06" height="15.14"/><rect class="cls-3" x="142.57" y="111.91" width="5.06" height="5.06"/><rect class="cls-3" x="147.59" y="116.95" width="45.25" height="5.06"/><rect class="cls-3" x="182.77" y="96.89" width="10.09" height="4.95"/><rect class="cls-3" x="177.74" y="91.82" width="5.06" height="5.06"/><rect class="cls-3" x="172.7" y="86.79" width="5.06" height="5.06"/><rect class="cls-3" x="167.69" y="81.75" width="5.06" height="5.06"/><rect class="cls-3" x="162.67" y="86.78" width="5.06" height="5.06"/><rect class="cls-3" x="152.62" y="91.79" width="10.07" height="5.06"/></svg>
